<?xml version="1.0" standalone="no"?><!DOCTYPE svg PUBLIC "-//W3C//DTD SVG 1.1//EN" "http://www.w3.org/Graphics/SVG/1.1/DTD/svg11.dtd"><svg t="1560429326737" class="icon" style="" viewBox="0 0 1024 1024" version="1.1" xmlns="http://www.w3.org/2000/svg" p-id="1059" xmlns:xlink="http://www.w3.org/1999/xlink" width="16" height="16"><defs><style type="text/css"></style></defs><path d="M934.443 258.719 496.176 696.983l-157.92 0L338.256 539.059 776.523 100.8c6.165-6.165 14.235-9.175 22.315-9.175 8.1 0 16.185 3.01 22.35 9.175l113.255 113.247c6.17 6.17 9.175 14.24 9.175 22.335C943.618 244.454 940.613 252.552 934.443 258.719zM798.858 183.742 417.216 565.378l0 52.65 52.64 0 381.642-381.647L798.858 183.742zM509.339 223.227 180.337 223.227l0 631.676 631.681 0L812.018 525.899c0-21.79 17.665-39.475 39.48-39.475 21.805 0 39.48 17.685 39.48 39.475l0 355.324c0 29.075-23.57 52.645-52.64 52.645L154.017 933.868c-29.07 0-52.64-23.57-52.64-52.645L101.377 196.902c0-29.07 23.57-52.64 52.64-52.64l355.322 0c21.805 0 39.48 17.685 39.48 39.48S531.144 223.227 509.339 223.227z" p-id="1060"></path></svg>