<?xml version="1.0" standalone="no"?><!DOCTYPE svg PUBLIC "-//W3C//DTD SVG 1.1//EN" "http://www.w3.org/Graphics/SVG/1.1/DTD/svg11.dtd"><svg t="1560429328911" class="icon" style="" viewBox="0 0 1067 1024" version="1.1" xmlns="http://www.w3.org/2000/svg" p-id="1183" xmlns:xlink="http://www.w3.org/1999/xlink" width="16.671875" height="16"><defs><style type="text/css"></style></defs><path d="M209.85222231 983.64030699A60.740084 60.740084 0 0 1 149.74254331 915.87728899a400.362535 400.362535 0 0 1 166.64814-327.191304 453.935908 453.935908 0 0 1 54.115301-32.438214 271.11843 271.11843 0 0 1-64.909605-75.991463 280.718283 280.718283 0 0 1-36.110047-165.542166A274.491651 274.491651 0 0 1 498.96484731 66.42301199 328.109263 328.109263 0 0 1 536.96610931 64.00092899a260.788635 260.788635 0 0 1 101.638997 20.327799 273.617931 273.617931 0 0 1 107.44536 82.284455 279.667608 279.667608 0 0 1 55.630484 125.848765 295.505154 295.505154 0 0 1-13.747255 149.074215 258.797882 258.797882 0 0 1-79.342564 112.289526 295.825886 295.825886 0 0 1 85.159987 59.059004l1.846976 1.448825a391.127653 391.127653 0 0 1 91.430859 131.168499 427.160281 427.160281 0 0 1 37.315557 170.319974 65.838623 65.838623 0 0 1-20.571113 49.857301 71.8883 71.8883 0 0 1-49.768824 17.905717z m-0.81842-60.021201h644.782756c11.955577 0 11.955577-3.38428 11.955577-7.741817a369.27361 369.27361 0 0 0-108.772528-256.530635l-1.891216-1.448826a223.406718 223.406718 0 0 0-111.028715-62.929912 9.876347 9.876347 0 0 1-3.682893-0.962197 268.552571 268.552571 0 0 1-98.741345 17.905717 350.372517 350.372517 0 0 1-106.250908-17.385909 323.762786 323.762786 0 0 0-85.712974 43.56431 339.954243 339.954243 0 0 0-141.564653 277.820631 25.061368 25.061368 0 0 0 0.917958 7.741817z m237.563183-388.672391a298.347507 298.347507 0 0 0 95.246468 16.94352 206.695453 206.695453 0 0 0 96.275024-22.749883 198.024618 198.024618 0 0 0 94.7709-108.385437 232.309808 232.309808 0 0 0 11.059738-118.095888 219.447332 219.447332 0 0 0-43.575369-98.254717 205.501002 205.501002 0 0 0-315.57858-13.072611 219.215077 219.215077 0 0 0-29.042873 257.979461 214.780122 214.780122 0 0 0 90.811513 85.668734z m0 0" p-id="1184"></path></svg>