<?xml version="1.0" standalone="no"?><!DOCTYPE svg PUBLIC "-//W3C//DTD SVG 1.1//EN" "http://www.w3.org/Graphics/SVG/1.1/DTD/svg11.dtd"><svg t="1560429318834" class="icon" style="" viewBox="0 0 1024 1024" version="1.1" xmlns="http://www.w3.org/2000/svg" p-id="811" xmlns:xlink="http://www.w3.org/1999/xlink" width="16" height="16"><defs><style type="text/css"></style></defs><path d="M227.464533 365.431467c-13.073067 97.6896 32.085333 219.409067 139.502934 328.192 107.52 108.919467 237.1584 158.5152 331.400533 146.0224 74.1376-16.384 155.306667-78.984533 162.474667-117.9648-1.570133-19.285333-24.234667-46.762667-59.2896-68.642134-33.655467-20.992-68.983467-30.0032-79.018667-25.1904-10.922667 5.2224-16.1792 12.5952-26.282667 35.7376l-0.785066 1.774934c-15.803733 36.2496-27.3408 53.248-54.6816 67.515733-48.7424 25.429333-116.360533-15.7696-206.984534-106.3936-88.507733-88.507733-125.576533-151.7568-100.078933-200.635733 14.267733-27.3408 31.266133-38.912 67.549867-54.715734l1.7408-0.750933c23.176533-10.103467 30.5152-15.36 35.771733-26.282667 4.778667-10.0352-4.1984-45.397333-25.1904-79.0528-21.879467-35.054933-49.3568-57.685333-68.676267-59.255466-38.912 7.168-101.546667 88.2688-117.418666 159.6416z m90.9312 376.149333c-121.685333-123.2896-174.592-265.728-158.071466-388.061867 22.254933-100.727467 105.403733-207.223467 178.722133-215.825066l4.096-0.238934c93.559467 0.273067 193.467733 160.3584 157.218133 236.066134-14.336 30.037333-32.904533 43.2128-70.007466 59.392l-1.774934 0.785066c-22.7328 9.898667-29.525333 14.5408-34.304 23.688534 0.034133-0.1024-0.068267 0.955733 0.580267 4.232533 1.262933 6.212267 4.8128 14.7456 10.922667 25.156267 13.994667 23.927467 39.594667 54.715733 76.288 91.4432 37.0688 37.034667 69.495467 64.170667 95.095466 79.7696 11.537067 7.031467 21.162667 11.3664 28.228267 13.073066 3.720533 0.887467 4.7104 0.853333 3.822933 1.297067 9.181867-4.778667 13.789867-11.605333 23.688534-34.304l0.785066-1.774933c16.1792-37.102933 29.3888-55.671467 59.392-70.007467 75.741867-36.2496 235.793067 63.624533 236.100267 157.218133l-0.238933 4.096c-8.6016 73.3184-115.0976 156.4672-218.658134 179.2-119.296 16.008533-269.9264-41.642667-391.8848-165.205333z" p-id="812"></path></svg>